<svg xmlns="http://www.w3.org/2000/svg" width="166" height="128" viewBox="0 0 166 128" fill="none">
  <path fill-rule="evenodd" clip-rule="evenodd" d="M88.4071 45.1593C87.5232 47.4328 86.2954 49.557 84.7666 51.4578C85.7191 52.4581 86.7653 53.3651 87.8906 54.1661C88.5222 54.5871 89.1785 54.9699 89.8558 55.3125C93.5485 57.0815 97.6711 57.7547 101.735 57.2524C101.072 55.1918 100.015 53.2795 98.6233 51.6215C95.9794 48.4603 92.4035 46.216 88.4071 45.2096M50.6159 17.0048C51.1072 16.6521 51.6237 16.3246 52.1402 16.0097C54.9684 14.32 58.1051 13.2114 61.3669 12.7485C64.6286 12.2856 67.9499 12.4778 71.1365 13.3139C75.8817 14.6113 80.1455 17.2642 83.4061 20.9477C84.0982 20.3846 84.8262 19.8671 85.5854 19.3983C89.0152 17.2385 93.0252 16.1833 97.0739 16.375C99.765 16.5627 102.366 17.422 104.639 18.8744C106.913 20.3268 108.785 22.326 110.087 24.689C111.884 27.9064 112.444 31.6694 111.661 35.2706C111.326 36.7351 110.677 38.1095 109.759 39.2991C108.842 40.4887 107.677 41.4651 106.345 42.1612C103.919 43.3806 101.125 43.6502 98.5099 42.917C97.2203 42.6034 96.0401 41.9456 95.095 41.0139C94.1499 40.0821 93.4754 38.9112 93.1436 37.6262C92.8504 36.5491 92.8486 35.4135 93.1386 34.3355C93.4286 33.2576 93.9998 32.2761 94.7938 31.4914C95.4783 30.9081 96.3004 30.5093 97.1823 30.333C98.0642 30.1566 98.9765 30.2085 99.8326 30.4837L101.092 30.8238L100.412 33.3432L99.1524 33.0031C98.7075 32.8372 98.2269 32.7906 97.7584 32.8679C97.2899 32.9453 96.8498 33.1439 96.4818 33.444C96.0202 33.9281 95.6954 34.5259 95.5405 35.1766C95.3856 35.8273 95.4061 36.5074 95.6 37.1475C95.8241 37.9914 96.2747 38.7578 96.9031 39.364C97.5315 39.9701 98.3136 40.3929 99.165 40.5865C101.163 41.1514 103.3 40.9538 105.161 40.0323C106.165 39.501 107.042 38.7587 107.731 37.8562C108.42 36.9537 108.906 35.9126 109.154 34.8045C109.8 31.8007 109.325 28.6647 107.819 25.9865C106.745 23.9845 105.183 22.2853 103.279 21.0458C101.374 19.8063 99.1884 19.0664 96.9227 18.8944C93.3994 18.7267 89.9092 19.641 86.9207 21.5146C86.2587 21.9277 85.6234 22.3821 85.0185 22.8751C88.4681 27.2806 90.2165 32.7807 89.9439 38.3694C89.8438 39.8436 89.5948 41.3039 89.2007 42.728C93.6367 43.8935 97.5995 46.412 100.538 49.9335C102.211 51.9531 103.462 54.2876 104.216 56.7989C108.567 55.9255 112.568 53.8023 115.73 50.6894C117.814 48.5923 119.459 46.1006 120.569 43.3601C121.679 40.6196 122.231 37.6853 122.192 34.7289C121.991 24.8654 115.566 15.6695 107.605 10.2528C95.6126 2.11512 81.2898 0.679054 67.6472 5.21399C63.2382 6.72564 54.1683 12.5959 50.6033 16.9544L50.6159 17.0048ZM86.7065 42.1989C87.0747 40.882 87.311 39.5316 87.4119 38.1679C87.4623 37.4129 87.4623 36.6554 87.4119 35.9004C87.0928 31.8196 85.6108 27.9158 83.1415 24.6512C81.6952 26.2596 80.5667 28.1276 79.8159 30.1562C78.4054 34.0278 78.2467 38.2448 79.3624 42.2115C81.7914 41.831 84.2649 41.831 86.6939 42.2115L86.7065 42.1989ZM83.066 49.5178C84.2049 48.025 85.145 46.3905 85.8625 44.6554C84.0016 44.416 82.1177 44.416 80.2568 44.6554C80.9691 46.397 81.9095 48.0364 83.0534 49.5304L83.066 49.5178ZM59.9881 29.4381C57.0555 30.3772 54.5684 32.3579 52.9968 35.006C51.8209 36.9444 51.1505 39.1469 51.0471 41.4117C50.9437 43.6764 51.4105 45.9309 52.4047 47.9684C54.0185 51.1017 56.5498 53.6682 59.6606 55.3251C60.344 55.6945 61.051 56.0185 61.7769 56.295C63.8743 51.1028 67.7685 46.8375 72.749 44.2775C74.0609 43.6345 75.432 43.1198 76.843 42.7406C75.6217 38.3036 75.8154 33.596 77.3973 29.2744C78.3171 26.8188 79.7223 24.5738 81.5291 22.6735C78.6164 19.3456 74.8005 16.9345 70.5445 15.7325C67.6853 14.9832 64.7055 14.8112 61.7792 15.2265C58.8528 15.6417 56.0385 16.636 53.5007 18.1512C45.0606 23.2656 40.3116 33.4314 39.6439 43.0303C38.5858 57.4792 44.5064 70.6053 55.2769 80.1287C58.7788 83.2276 68.466 88.1656 73.9583 89.0474C73.404 88.7955 72.8623 88.5309 72.3333 88.2412C69.4535 86.6356 66.9229 84.4716 64.8896 81.876C62.8564 79.2803 61.3614 76.3052 60.492 73.1247C59.2502 68.3678 59.4165 63.3527 60.9707 58.6885C56.2926 56.9552 52.4236 53.5484 50.1121 49.1273C48.931 46.7033 48.3767 44.0217 48.5 41.328C48.6232 38.6344 49.42 36.0146 50.8175 33.7085C52.6973 30.5185 55.6827 28.1293 59.2071 26.9943C60.6439 26.5536 62.159 26.4291 63.6485 26.6291C65.138 26.8292 66.5665 27.3491 67.8361 28.1532C70.1008 29.6489 71.7267 31.935 72.3963 34.5651C72.7703 35.8332 72.7958 37.1786 72.4699 38.4599C72.144 39.7412 71.4789 40.911 70.5445 41.8462C69.7504 42.6543 68.7549 43.2357 67.6609 43.5303C66.5668 43.8248 65.414 43.8218 64.3215 43.5216C63.4681 43.2233 62.7063 42.7092 62.1103 42.0293C61.5144 41.3494 61.1044 40.5269 60.9203 39.6417L60.6054 38.382L63.1248 37.7396L63.4523 38.9993C63.5333 39.466 63.7336 39.9038 64.0338 40.2703C64.334 40.6367 64.7239 40.9192 65.1655 41.0904C65.8161 41.2418 66.4949 41.2216 67.1353 41.0317C67.7758 40.8418 68.3558 40.4887 68.8187 40.0071C69.4352 39.3886 69.8712 38.6136 70.0799 37.7657C70.2885 36.9177 70.2619 36.0289 70.0028 35.195C69.501 33.1591 68.2506 31.3871 66.5008 30.2317C65.5381 29.6342 64.4568 29.2537 63.332 29.1166C62.2073 28.9796 61.0662 29.0893 59.9881 29.4381ZM81.3402 51.4956C79.8098 49.5937 78.578 47.4698 77.687 45.197C76.3857 45.5418 75.1202 46.01 73.9079 46.5953C73.2269 46.9293 72.5665 47.3037 71.9302 47.7165C68.5338 50.0183 65.8674 53.2442 64.246 57.0131C66.3591 57.4708 68.541 57.5136 70.6705 57.1391C74.7338 56.432 78.4689 54.4564 81.3402 51.4956ZM79.9923 74.6868C82.2639 76.7585 85.2194 77.9201 88.2937 77.9494C90.5604 78.0015 92.8037 77.4833 94.8178 76.4421C96.8318 75.401 98.5519 73.8704 99.82 71.991C101.735 69.0294 102.694 65.5511 102.566 62.0267C102.542 61.2499 102.466 60.4756 102.339 59.7089C96.7973 60.4899 91.1591 59.2514 86.4546 56.2195C85.2299 55.3942 84.0906 54.4489 83.0534 53.3977C79.8309 56.6966 75.6536 58.8998 71.1114 59.6963C68.5275 60.1449 65.8797 60.0678 63.3264 59.4695C61.9181 63.6711 61.7562 68.1906 62.8603 72.4823C63.6435 75.3327 64.9856 77.999 66.8087 80.326C68.6318 82.6529 70.8994 84.5941 73.4796 86.0367C82.1212 90.6976 93.3074 89.778 102.037 85.6588C115.075 79.3603 123.452 67.6576 126.349 53.5615C127.282 48.9762 126.715 38.1301 124.737 32.9275C124.737 33.5322 124.825 34.1872 124.838 34.7415C124.889 38.0351 124.282 41.3059 123.054 44.3622C121.825 47.4186 119.999 50.1992 117.683 52.5411C114.177 55.9984 109.745 58.3655 104.922 59.3561C105.074 60.2346 105.163 61.1229 105.186 62.0141C105.325 66.066 104.217 70.0629 102.012 73.4648C100.506 75.7033 98.4621 77.5272 96.0671 78.7687C93.6721 80.0102 91.0033 80.6295 88.3063 80.5696C84.6018 80.5254 81.0425 79.1223 78.3043 76.6267C77.2038 75.6042 76.3387 74.3548 75.7689 72.9649C75.199 71.575 74.938 70.0779 75.0038 68.5772C75.1604 65.8686 76.3242 63.3164 78.2665 61.422C79.1821 60.4635 80.3398 59.7703 81.617 59.4155C82.8942 59.0607 84.2435 59.0576 85.5224 59.4065C86.6216 59.6905 87.6251 60.2629 88.429 61.0646C89.2329 61.8663 89.8081 62.8682 90.0951 63.9667C90.2599 64.8536 90.1935 65.7681 89.9022 66.622C89.611 67.4758 89.1048 68.2403 88.4323 68.8417L87.5253 69.7361L85.6609 67.8339L86.5805 66.927C86.9419 66.6241 87.2188 66.233 87.3844 65.7915C87.5499 65.3501 87.5985 64.8733 87.5253 64.4076C87.3353 63.7666 86.9786 63.1876 86.4918 62.7295C86.0049 62.2714 85.4052 61.9506 84.754 61.8C83.9106 61.5712 83.0206 61.5782 82.181 61.8203C81.3414 62.0624 80.5843 62.5303 79.9923 63.173C78.5069 64.6171 77.6093 66.5604 77.4729 68.6276C77.4281 69.7598 77.6303 70.8883 78.0653 71.9346C78.5004 72.9809 79.1579 73.92 79.9923 74.6868ZM36.8096 46.3938C36.8558 55.9484 39.8373 65.258 45.3504 73.0617C46.8655 75.2453 48.5866 77.2785 50.49 79.1335C51.082 79.6626 51.6363 80.3932 52.6567 81.2372C52.9842 81.5144 53.1102 81.5395 53.4377 81.8167C59.2463 86.7633 66.2089 90.1645 73.6812 91.7054C79.2365 92.9651 82.4991 92.7005 88.0166 92.4486C92.7483 91.8676 97.3698 90.5987 101.735 88.6821C104.325 87.5897 106.788 86.2169 109.079 84.588L116.032 78.7934L116.687 78.0754L118.061 76.5637L119.887 74.3214C122.623 70.7458 124.798 66.7741 126.337 62.5432C127.376 59.7278 128.152 56.8223 128.655 53.8638C129.233 50.4954 129.407 47.0698 129.171 43.6602C128.764 36.662 126.783 29.8458 123.377 23.7191L121.185 20.1541C120.782 19.5872 120.416 19.033 119.925 18.4409C119.434 17.8488 119.169 17.4583 118.665 16.8915L117.33 15.3294C115.064 12.8569 112.557 10.6162 109.847 8.64039L108.147 7.48146C107.018 6.72099 105.849 6.02291 104.645 5.39035C103.977 5.05023 103.498 4.83608 102.818 4.49596C99.5702 2.87148 96.1226 1.68134 92.5641 0.956189C82.7591 -1.05237 72.569 0.121549 63.4775 4.30701C60.9805 5.49031 58.5871 6.88086 56.3224 8.46403C55.6926 8.89233 55.2517 9.29544 54.6722 9.72374C52.5702 11.324 50.6333 13.1302 48.8901 15.1153C48.4367 15.6192 48.0084 16.0349 47.6304 16.5513C44.2059 20.7173 41.51 25.432 39.6565 30.4963C39.4172 31.2143 39.1778 31.8316 38.9889 32.5118C38.0685 35.4322 37.4398 38.4366 37.1119 41.4809L36.9229 45.26C36.9229 45.4994 36.9229 45.6001 36.9229 45.7513C36.8551 45.959 36.8169 46.1753 36.8096 46.3938Z" fill="#F78D1E"/>
  <path fill-rule="evenodd" clip-rule="evenodd" d="M157.953 124.899H154.174V110.916C157.689 110.916 160.019 110.463 162.173 112.768C164.693 115.464 164.516 124.899 157.903 124.899M151.97 126.977C157.475 126.977 162.841 127.897 165.222 122.254C166.67 118.84 166.141 113.083 163.244 110.752C160.347 108.422 156.291 108.85 151.97 108.85V126.977Z" fill="#F78D1E"/>
  <path fill-rule="evenodd" clip-rule="evenodd" d="M83.5317 116.673H82.1082V110.778L83.96 110.853C86.4794 111.08 86.7439 111.924 86.7439 114.292C86.7439 116.094 85.2701 116.673 83.5317 116.673ZM79.9541 126.978H82.1208V118.412C82.7758 118.55 82.8892 118.84 84.0355 120.377C84.5898 121.12 85.0433 121.775 85.5976 122.506C86.7319 123.914 87.7794 125.391 88.7342 126.927H91.5812C90.3215 125.012 85.6984 119.369 85.1693 118.399C85.7499 118.375 86.3198 118.235 86.8446 117.985C87.3695 117.736 87.8384 117.383 88.2232 116.947C88.6081 116.512 88.9008 116.003 89.0839 115.451C89.267 114.9 89.3366 114.317 89.2885 113.738C89.2885 108.283 83.8592 108.8 79.9541 108.8V126.978Z" fill="#F78D1E"/>
  <path fill-rule="evenodd" clip-rule="evenodd" d="M106.949 119.67L109.708 113.548L112.466 119.67H106.949ZM115.502 127.002H118.022L109.708 108.938L101.381 126.977H103.9L105.928 122.064H113.487L115.502 127.002Z" fill="#F78D1E"/>
  <path fill-rule="evenodd" clip-rule="evenodd" d="M130.128 108.85H132.622V124.407H138.467V126.952H132.622V126.977H130.128V108.85Z" fill="#F78D1E"/>
  <path fill-rule="evenodd" clip-rule="evenodd" d="M58.1729 108.938V108.963H65.0761V111.495H58.1729V115.589H65.0761V118.121H58.1729V124.495H65.0761V127.04H58.1729V127.052H55.6787V108.938H58.1729Z" fill="#F78D1E"/>
  <path fill-rule="evenodd" clip-rule="evenodd" d="M31.9085 122.442L39.1392 108.522L41.4948 126.838L39.0132 127.14L37.8039 115.312L31.9085 126.775L26.5421 115.501L25.2824 127.052L22.8008 126.75L25.1564 108.446L31.9085 122.442Z" fill="#F78D1E"/>
  <path fill-rule="evenodd" clip-rule="evenodd" d="M2.50681 108.938V108.963H9.3974V111.495H2.50681V115.589H9.3974V118.121H2.50681V124.495H9.3974V127.04H2.50681V127.052H0V108.938H2.50681Z" fill="#F78D1E"/>
</svg>